<svg width="24" height="25" viewBox="0 0 24 25" fill="none" xmlns="http://www.w3.org/2000/svg">
<path d="M19.965 9.021C19.988 8.847 20 8.673 20 8.5C20 6.121 17.857 4.212 15.479 4.535C14.786 3.302 13.466 2.5 12 2.5C10.534 2.5 9.214 3.302 8.521 4.535C6.138 4.212 4 6.121 4 8.5C4 8.673 4.012 8.847 4.035 9.021C2.802 9.715 2 11.035 2 12.5C2 13.965 2.802 15.285 4.035 15.979C4.01193 16.1517 4.00024 16.3258 4 16.5C4 18.879 6.138 20.783 8.521 20.465C9.214 21.698 10.534 22.5 12 22.5C13.466 22.5 14.786 21.698 15.479 20.465C17.857 20.783 20 18.879 20 16.5C20 16.327 19.988 16.153 19.965 15.979C21.198 15.285 22 13.965 22 12.5C22 11.035 21.198 9.715 19.965 9.021ZM10.955 16.916L7.288 13.202L8.712 11.798L10.969 14.084L15.296 9.79L16.704 11.21L10.955 16.916Z" fill="#7FCFD3"/>
</svg>
