<svg width="124" height="124" viewBox="0 0 124 124" fill="none" xmlns="http://www.w3.org/2000/svg">
<path fill-rule="evenodd" clip-rule="evenodd" d="M37.0583 5.99994H87.6968C92.9513 5.99994 96.568 5.99994 99.6112 7.05394C102.455 8.05838 105.03 9.70534 107.134 11.8667C109.238 14.0281 110.815 16.6457 111.742 19.5159C112.755 22.6004 112.75 26.2688 112.75 31.7093V104.807C112.75 112.382 103.827 116.887 97.9527 111.508C97.7642 111.328 97.5134 111.227 97.2526 111.227C96.9917 111.227 96.741 111.328 96.5525 111.508L94.0518 113.792C89.2572 118.184 81.9928 118.184 77.1982 113.792C76.3303 112.982 75.1873 112.531 74 112.531C72.8127 112.531 71.6697 112.982 70.8018 113.792C66.0072 118.184 58.7428 118.184 53.9482 113.792C53.0803 112.982 51.9373 112.531 50.75 112.531C49.5627 112.531 48.4197 112.982 47.5518 113.792C42.7572 118.184 35.4928 118.184 30.6982 113.792L28.2027 111.508C28.0139 111.327 27.7621 111.225 27.5 111.225C27.2379 111.225 26.9861 111.327 26.7973 111.508C20.9228 116.882 12 112.382 12 104.807V31.7144C12 26.2688 12 22.6004 13.0075 19.5159C13.9348 16.6455 15.5118 14.0278 17.6159 11.8663C19.72 9.70487 22.2944 8.05804 25.1388 7.05394C28.1872 5.99477 31.8038 5.99994 37.0583 5.99994ZM37.8127 13.7499C31.5042 13.7499 29.329 13.8016 27.686 14.3751C25.97 14.9888 24.4185 15.9893 23.1515 17.2993C21.8846 18.6092 20.9364 20.1933 20.3803 21.9288C19.8068 23.6803 19.7603 25.9846 19.7603 32.4533V104.807C19.7603 105.427 20.0652 105.799 20.4527 105.98C20.6295 106.064 20.8266 106.097 21.021 106.073C21.2307 106.039 21.4243 105.94 21.5738 105.789C23.1905 104.301 25.3077 103.475 27.5052 103.475C29.7026 103.475 31.8198 104.301 33.4365 105.789L35.932 108.073C36.7998 108.883 37.9429 109.334 39.1302 109.334C40.3175 109.334 41.4605 108.883 42.3283 108.073C44.6246 105.957 47.6328 104.782 50.7552 104.782C53.8776 104.782 56.8857 105.957 59.182 108.073C60.0498 108.883 61.1929 109.334 62.3802 109.334C63.5675 109.334 64.7105 108.883 65.5783 108.073C67.8746 105.957 70.8828 104.782 74.0052 104.782C77.1276 104.782 80.1357 105.957 82.432 108.073C83.2998 108.883 84.4429 109.334 85.6302 109.334C86.8175 109.334 87.9605 108.883 88.8283 108.073L91.3238 105.789C92.9405 104.301 95.0577 103.475 97.2552 103.475C99.4526 103.475 101.57 104.301 103.186 105.789C103.409 105.996 103.6 106.058 103.744 106.073C103.937 106.096 104.132 106.063 104.308 105.98C104.695 105.799 105.005 105.422 105.005 104.807V32.4533C105.005 25.9846 104.953 23.6803 104.385 21.9288C103.828 20.192 102.879 18.607 101.61 17.297C100.341 15.9869 98.7872 14.9871 97.0692 14.3751C95.4313 13.8068 93.2562 13.7551 86.9477 13.7551L37.8127 13.7499ZM32.6718 38.2916C32.6718 37.2639 33.0801 36.2783 33.8068 35.5516C34.5335 34.8249 35.5191 34.4166 36.5468 34.4166H39.1302C40.1579 34.4166 41.1435 34.8249 41.8702 35.5516C42.5969 36.2783 43.0052 37.2639 43.0052 38.2916C43.0052 39.3193 42.5969 40.3049 41.8702 41.0316C41.1435 41.7583 40.1579 42.1666 39.1302 42.1666H36.5468C35.5191 42.1666 34.5335 41.7583 33.8068 41.0316C33.0801 40.3049 32.6718 39.3193 32.6718 38.2916ZM50.7552 38.2916C50.7552 37.2639 51.1634 36.2783 51.8901 35.5516C52.6168 34.8249 53.6024 34.4166 54.6302 34.4166H88.2135C89.2412 34.4166 90.2268 34.8249 90.9535 35.5516C91.6802 36.2783 92.0885 37.2639 92.0885 38.2916C92.0885 39.3193 91.6802 40.3049 90.9535 41.0316C90.2268 41.7583 89.2412 42.1666 88.2135 42.1666H54.6302C53.6024 42.1666 52.6168 41.7583 51.8901 41.0316C51.1634 40.3049 50.7552 39.3193 50.7552 38.2916ZM32.6718 56.3749C32.6718 55.3472 33.0801 54.3616 33.8068 53.6349C34.5335 52.9082 35.5191 52.4999 36.5468 52.4999H39.1302C40.1579 52.4999 41.1435 52.9082 41.8702 53.6349C42.5969 54.3616 43.0052 55.3472 43.0052 56.3749C43.0052 57.4027 42.5969 58.3883 41.8702 59.115C41.1435 59.8417 40.1579 60.2499 39.1302 60.2499H36.5468C35.5191 60.2499 34.5335 59.8417 33.8068 59.115C33.0801 58.3883 32.6718 57.4027 32.6718 56.3749ZM50.7552 56.3749C50.7552 55.3472 51.1634 54.3616 51.8901 53.6349C52.6168 52.9082 53.6024 52.4999 54.6302 52.4999H88.2135C89.2412 52.4999 90.2268 52.9082 90.9535 53.6349C91.6802 54.3616 92.0885 55.3472 92.0885 56.3749C92.0885 57.4027 91.6802 58.3883 90.9535 59.115C90.2268 59.8417 89.2412 60.2499 88.2135 60.2499H54.6302C53.6024 60.2499 52.6168 59.8417 51.8901 59.115C51.1634 58.3883 50.7552 57.4027 50.7552 56.3749ZM32.6718 74.4583C32.6718 73.4306 33.0801 72.4449 33.8068 71.7182C34.5335 70.9915 35.5191 70.5833 36.5468 70.5833H39.1302C40.1579 70.5833 41.1435 70.9915 41.8702 71.7182C42.5969 72.4449 43.0052 73.4306 43.0052 74.4583C43.0052 75.486 42.5969 76.4716 41.8702 77.1983C41.1435 77.925 40.1579 78.3333 39.1302 78.3333H36.5468C35.5191 78.3333 34.5335 77.925 33.8068 77.1983C33.0801 76.4716 32.6718 75.486 32.6718 74.4583ZM50.7552 74.4583C50.7552 73.4306 51.1634 72.4449 51.8901 71.7182C52.6168 70.9915 53.6024 70.5833 54.6302 70.5833H88.2135C89.2412 70.5833 90.2268 70.9915 90.9535 71.7182C91.6802 72.4449 92.0885 73.4306 92.0885 74.4583C92.0885 75.486 91.6802 76.4716 90.9535 77.1983C90.2268 77.925 89.2412 78.3333 88.2135 78.3333H54.6302C53.6024 78.3333 52.6168 77.925 51.8901 77.1983C51.1634 76.4716 50.7552 75.486 50.7552 74.4583Z" fill="#512D89"/>
</svg>
